<svg width="512mm" height="512mm" viewBox="0 0 512 512" xmlns="http://www.w3.org/2000/svg">
    <path style="fill:#fff;stroke-width:.264583" d="M0 0h512v512H0z"/>
    <path style="fill:#9ccc65;fill-opacity:1;stroke-width:.264583" d="M0 0h512v256H0z"/>
    <path style="fill:#ef9a9a;fill-opacity:1;stroke-width:.264583" d="M0 256h512v256H0z"/>
    <g aria-label="0:42" style="font-weight:500;font-size:123.472px;font-family:Avenir;-inkscape-font-specification:'Avenir, Medium';fill:gray;stroke-width:.264583">
        <path d="M-371.2-127.63q0-4.815.495-10 .493-5.187 1.728-10.126 1.358-5.062 3.457-9.63 2.223-4.569 5.557-7.903 3.457-3.457 8.025-5.432 4.692-2.1 10.866-2.1 6.173 0 10.742 2.1 4.692 1.975 8.026 5.432 3.457 3.334 5.556 7.903 2.222 4.568 3.457 9.63 1.358 4.94 1.852 10.125.494 5.186.494 10.001 0 6.915-1.235 14.817-1.234 7.902-4.568 14.693-3.334 6.791-9.26 11.236-5.804 4.445-15.064 4.445t-15.187-4.445q-5.803-4.445-9.137-11.236-3.334-6.79-4.569-14.693-1.234-7.902-1.234-14.817zm11.854 0q0 4.322.494 10.249.617 5.926 2.47 11.482 1.851 5.433 5.432 9.26 3.704 3.829 9.878 3.829 6.173 0 9.754-3.828 3.704-3.828 5.556-9.26 1.852-5.557 2.346-11.483.618-5.927.618-10.249 0-2.963-.247-6.667-.124-3.828-.865-7.655-.617-3.951-1.852-7.532-1.234-3.704-3.333-6.544-1.976-2.963-4.94-4.692-2.963-1.729-7.037-1.729-4.075 0-7.038 1.729t-5.062 4.692q-1.976 2.84-3.21 6.544-1.235 3.58-1.976 7.532-.618 3.827-.865 7.655-.123 3.704-.123 6.667zM-289.584-126.889q-3.334 0-5.804-2.346-2.346-2.47-2.346-5.803 0-3.334 2.346-5.68 2.47-2.47 5.804-2.47 3.333 0 5.68 2.47 2.469 2.346 2.469 5.68 0 3.334-2.47 5.803-2.346 2.346-5.68 2.346zm-8.15 35.56q0-3.334 2.346-5.68 2.47-2.469 5.804-2.469 3.333 0 5.68 2.47 2.469 2.345 2.469 5.68 0 3.333-2.47 5.802-2.346 2.346-5.68 2.346-3.333 0-5.803-2.346-2.346-2.47-2.346-5.803zM-230.935-103.182h-37.289v-12.1l34.82-56.057h14.322v57.785h12.347v10.372h-12.347v19.262h-11.853zm0-54.08h-.247l-26.67 43.708h26.917zM-198.092-96.515l35.066-34.819q1.852-1.728 3.581-3.704 1.729-2.099 3.087-4.321 1.358-2.223 2.099-4.692.864-2.47.864-5.186 0-3.21-1.235-5.803-1.11-2.593-3.21-4.322-1.975-1.852-4.815-2.84-2.717-.988-5.803-.988-6.42 0-10.619 3.581-4.198 3.58-5.31 9.878l-12.84-1.111q.864-5.803 3.333-10.002 2.593-4.321 6.297-7.16 3.828-2.84 8.643-4.199 4.94-1.358 10.62-1.358 5.679 0 10.618 1.605 5.062 1.482 8.766 4.568 3.828 2.964 5.927 7.532 2.222 4.445 2.222 10.495 0 4.322-1.358 8.15-1.235 3.704-3.334 7.037-2.099 3.334-4.815 6.297-2.716 2.964-5.68 5.804l-28.769 27.78h43.956v10.373h-57.29z" style="fill:#000" transform="rotate(180 0 25)"/>
    </g>
    <g aria-label="0:07" style="font-weight:500;font-size:123.472px;font-family:Avenir;-inkscape-font-specification:'Avenir, Medium';fill:gray;stroke-width:.264583">
        <path d="M142.22 384q0-4.815.494-10.001.494-5.186 1.73-10.125 1.357-5.062 3.456-9.63 2.223-4.57 5.557-7.903 3.457-3.457 8.025-5.433 4.692-2.099 10.866-2.099 6.173 0 10.742 2.1 4.692 1.975 8.026 5.432 3.457 3.334 5.556 7.902 2.222 4.569 3.457 9.631 1.358 4.939 1.852 10.125t.494 10.001q0 6.914-1.235 14.817-1.235 7.902-4.568 14.693-3.334 6.79-9.26 11.236-5.804 4.445-15.064 4.445t-15.187-4.445q-5.803-4.445-9.137-11.236-3.334-6.791-4.569-14.693-1.234-7.903-1.234-14.817zm11.854 0q0 4.322.494 10.248.617 5.927 2.47 11.483 1.851 5.433 5.432 9.26 3.704 3.828 9.878 3.828 6.173 0 9.754-3.828 3.704-3.827 5.556-9.26 1.852-5.556 2.346-11.483.618-5.926.618-10.248 0-2.963-.247-6.667-.124-3.828-.865-7.656-.617-3.95-1.852-7.532-1.234-3.704-3.333-6.544-1.976-2.963-4.94-4.692-2.963-1.728-7.037-1.728-4.075 0-7.038 1.728-2.963 1.73-5.062 4.692-1.976 2.84-3.21 6.544-1.235 3.581-1.976 7.532-.618 3.828-.865 7.656-.123 3.704-.123 6.667zM223.836 384.74q-3.334 0-5.804-2.345-2.346-2.47-2.346-5.803 0-3.334 2.346-5.68 2.47-2.47 5.804-2.47 3.333 0 5.68 2.47 2.469 2.346 2.469 5.68 0 3.333-2.47 5.803-2.346 2.346-5.68 2.346zm-8.15 35.56q0-3.333 2.346-5.679 2.47-2.47 5.804-2.47 3.333 0 5.68 2.47 2.469 2.346 2.469 5.68 0 3.333-2.47 5.803-2.346 2.346-5.68 2.346-3.333 0-5.803-2.346-2.346-2.47-2.346-5.803zM245.196 384q0-4.815.494-10.001.494-5.186 1.729-10.125 1.358-5.062 3.457-9.63 2.222-4.57 5.556-7.903 3.457-3.457 8.026-5.433 4.692-2.099 10.865-2.099 6.174 0 10.742 2.1 4.692 1.975 8.026 5.432 3.457 3.334 5.556 7.902 2.223 4.569 3.458 9.631 1.358 4.939 1.852 10.125T305.45 384q0 6.914-1.235 14.817-1.235 7.902-4.569 14.693-3.333 6.79-9.26 11.236-5.803 4.445-15.064 4.445-9.26 0-15.187-4.445-5.803-4.445-9.137-11.236-3.333-6.791-4.568-14.693-1.235-7.903-1.235-14.817zm11.854 0q0 4.322.493 10.248.618 5.927 2.47 11.483 1.852 5.433 5.433 9.26 3.704 3.828 9.877 3.828 6.174 0 9.755-3.828 3.704-3.827 5.556-9.26 1.852-5.556 2.346-11.483.617-5.926.617-10.248 0-2.963-.247-6.667-.123-3.828-.864-7.656-.617-3.95-1.852-7.532-1.235-3.704-3.334-6.544-1.975-2.963-4.939-4.692-2.963-1.728-7.038-1.728-4.074 0-7.038 1.728-2.963 1.73-5.062 4.692-1.975 2.84-3.21 6.544-1.235 3.581-1.976 7.532-.617 3.828-.864 7.656-.123 3.704-.123 6.667zM357.062 350.663h-42.228V340.29h54.945v10.125l-34.819 77.293h-13.335z" style="fill:#000" transform="translate(0 -50)"/>
    </g>
</svg>